<svg width="36" height="36" viewBox="0 0 36 36" fill="none" xmlns="http://www.w3.org/2000/svg">
<rect width="36" height="36" rx="18" fill="#ECECEC"/>
<path d="M17.5 8C19.7091 8 21.5 9.79086 21.5 12C21.5 14.2091 19.7091 16 17.5 16C15.2909 16 13.5 14.2091 13.5 12C13.5 9.79086 15.2909 8 17.5 8Z" fill="#979797" stroke="#979797" stroke-width="2"/>
<path d="M17.5 19C19.683 19 21.613 19.5743 22.9668 20.4502C24.3306 21.3326 25 22.4337 25 23.5C25 24.5663 24.3306 25.6674 22.9668 26.5498C21.613 27.4257 19.683 28 17.5 28C15.317 28 13.387 27.4257 12.0332 26.5498C10.6694 25.6674 10 24.5663 10 23.5C10 22.4337 10.6694 21.3326 12.0332 20.4502C13.387 19.5743 15.317 19 17.5 19Z" fill="#979797" stroke="#979797" stroke-width="2"/>
</svg>
