<svg width="25" height="25" viewBox="0 0 25 25" fill="none" xmlns="http://www.w3.org/2000/svg">
<path fill-rule="evenodd" clip-rule="evenodd" d="M24.7 13.1377C24.7 12.2915 24.6225 11.4779 24.4786 10.6968H13.0102V15.3128H19.5636C19.2813 16.8045 18.4234 18.0683 17.1337 18.9145V21.9087H21.0691C23.3716 19.8312 24.7 16.7719 24.7 13.1377Z" fill="#4285F4"/>
<path fill-rule="evenodd" clip-rule="evenodd" d="M13.0102 24.7997C16.298 24.7997 19.0544 23.7312 21.0691 21.9087L17.1337 18.9145C16.0434 19.6305 14.6486 20.0535 13.0102 20.0535C9.8387 20.0535 7.15426 17.9543 6.19671 15.1337H2.12853V18.2256C4.13218 22.1256 8.25018 24.7997 13.0102 24.7997Z" fill="#34A853"/>
<path fill-rule="evenodd" clip-rule="evenodd" d="M6.19671 15.1337C5.95317 14.4177 5.81479 13.653 5.81479 12.8665C5.81479 12.08 5.95317 11.3152 6.1967 10.5992V7.50734H2.12852C1.30381 9.11834 0.833344 10.9409 0.833344 12.8665C0.833344 14.7921 1.30382 16.6146 2.12853 18.2256L6.19671 15.1337Z" fill="#FBBC05"/>
<path fill-rule="evenodd" clip-rule="evenodd" d="M13.0102 5.67931C14.798 5.67931 16.4032 6.2814 17.6651 7.46388L21.1577 4.04119C19.0489 2.11559 16.2925 0.933105 13.0102 0.933105C8.25018 0.933105 4.13217 3.60731 2.12852 7.50734L6.1967 10.5992C7.15425 7.77855 9.8387 5.67931 13.0102 5.67931Z" fill="#EA4335"/>
</svg>
